<svg width="24" height="26" viewBox="0 0 24 26" fill="none" xmlns="http://www.w3.org/2000/svg">
<path d="M11.9922 5.75732C7.43754 5.75732 3.7417 9.45317 3.7417 14.0078C3.7417 18.5624 7.43754 22.2583 11.9922 22.2583C16.5468 22.2583 20.2427 18.5624 20.2427 14.0078C20.2427 9.45317 16.5621 5.75732 11.9922 5.75732ZM11.9922 9.49917C12.6209 9.49917 13.1117 10.0052 13.1117 10.6187C13.1117 11.2321 12.6056 11.7382 11.9922 11.7382C11.3634 11.7382 10.8727 11.2321 10.8727 10.6187C10.8727 10.0052 11.3788 9.49917 11.9922 9.49917ZM13.4951 18.5011H11.2561C10.842 18.5011 10.5046 18.1637 10.5046 17.7496C10.5046 17.3356 10.842 16.9982 11.2561 16.9982H11.6241V13.9925H11.2561C10.842 13.9925 10.5046 13.6551 10.5046 13.241C10.5046 12.827 10.842 12.4896 11.2561 12.4896H12.3756C12.7896 12.4896 13.127 12.827 13.127 13.241V16.9982H13.4951C13.9091 16.9982 14.2465 17.3356 14.2465 17.7496C14.2465 18.1637 13.9091 18.5011 13.4951 18.5011Z" fill="#141938"/>
</svg>
