<svg width="24" height="24" viewBox="0 0 24 24" fill="none" xmlns="http://www.w3.org/2000/svg">
<path d="M18.0263 2H10.0147V4.99643C10.0147 6.66112 8.6596 7.99287 7.01923 7.99287H4V20.0024C4 21.1201 4.90339 22 5.99697 22H18.0026C19.1199 22 19.9995 21.0963 19.9995 20.0024V3.99762C20.0233 2.90369 19.1437 2 18.0263 2ZM16.0294 17.0297H8.01771C7.47092 17.0297 7.01923 16.5779 7.01923 16.0309C7.01923 15.4839 7.47092 15.0321 8.01771 15.0321H16.0294C16.5762 15.0321 17.0278 15.4839 17.0278 16.0309C17.0278 16.5779 16.5762 17.0297 16.0294 17.0297ZM16.0294 13.0345H8.01771C7.47092 13.0345 7.01923 12.5826 7.01923 12.0357C7.01923 11.4887 7.47092 11.0369 8.01771 11.0369H16.0294C16.5762 11.0369 17.0278 11.4887 17.0278 12.0357C17.0278 12.5826 16.5762 13.0345 16.0294 13.0345Z" fill="#141938"/>
<path d="M8.01771 5.02021V2L4 6.01902H6.99545C7.56602 6.01902 8.01771 5.56718 8.01771 5.02021Z" fill="#141938"/>
</svg>
