<svg width="49" height="48" viewBox="0 0 49 48" fill="none" xmlns="http://www.w3.org/2000/svg">
<path d="M14 25.5H20V22.5H14V25.5ZM14 13.5H30.5V10.5H14V13.5ZM14 19.5H30.5V16.5H14V19.5ZM34.25 1.5H11.75C10.3576 1.5 9.02226 2.05312 8.03769 3.03769C7.05313 4.02226 6.5 5.35761 6.5 6.75V41.25C6.5 42.6424 7.05313 43.9777 8.03769 44.9623C9.02226 45.9469 10.3576 46.5 11.75 46.5H29.2662C28.0781 45.6809 27.0371 44.6665 26.1875 43.5H11.75C11.1533 43.5 10.581 43.2629 10.159 42.841C9.73705 42.419 9.5 41.8467 9.5 41.25V6.75C9.5 6.15326 9.73705 5.58097 10.159 5.15901C10.581 4.73705 11.1533 4.5 11.75 4.5H34.25C34.8467 4.5 35.419 4.73705 35.841 5.15901C36.2629 5.58097 36.5 6.15326 36.5 6.75V23.25C37.5106 23.2497 38.5176 23.3693 39.5 23.6062V6.75C39.5 5.35761 38.9469 4.02226 37.9623 3.03769C36.9777 2.05312 35.6424 1.5 34.25 1.5Z" fill="url(#paint0_linear_2832_197555)"/>
<path d="M36.5 25.5C34.4233 25.5 32.3932 26.1158 30.6665 27.2696C28.9398 28.4233 27.594 30.0632 26.7993 31.9818C26.0045 33.9004 25.7966 36.0116 26.2018 38.0484C26.6069 40.0852 27.6069 41.9562 29.0754 43.4246C30.5438 44.8931 32.4148 45.8931 34.4516 46.2982C36.4884 46.7034 38.5996 46.4955 40.5182 45.7007C42.4368 44.906 44.0767 43.5602 45.2304 41.8335C46.3842 40.1068 47 38.0767 47 36C47 33.2152 45.8937 30.5445 43.9246 28.5754C41.9555 26.6062 39.2848 25.5 36.5 25.5ZM32.375 29.25H40.625V31.5H32.375V29.25ZM40.9681 37.6144C40.9377 37.6889 40.8858 37.7528 40.8191 37.7979C40.7523 37.8429 40.6737 37.8672 40.5931 37.8675H38.9562V42C38.9558 42.1083 38.9125 42.2119 38.836 42.2885C38.7594 42.365 38.6558 42.4083 38.5475 42.4087H34.4544C34.3461 42.4083 34.2424 42.365 34.1659 42.2885C34.0893 42.2119 34.0461 42.1083 34.0456 42V37.875H32.4087C32.328 37.8749 32.2491 37.8509 32.182 37.8059C32.1148 37.761 32.0625 37.6972 32.0316 37.6226C32.0008 37.548 31.9927 37.4659 32.0084 37.3867C32.0241 37.3074 32.063 37.2347 32.12 37.1775L36.2113 33.0844C36.2887 33.0087 36.3927 32.9663 36.5009 32.9663C36.6092 32.9663 36.7132 33.0087 36.7906 33.0844L40.8819 37.1775C40.9376 37.2338 40.9755 37.3053 40.9908 37.3829C41.0061 37.4606 40.9983 37.5411 40.9681 37.6144Z" fill="url(#paint1_linear_2832_197555)"/>
<defs>
<linearGradient id="paint0_linear_2832_197555" x1="6.5" y1="1.5" x2="35.3113" y2="49.0386" gradientUnits="userSpaceOnUse">
<stop offset="0.272135" stop-color="#34263B"/>
<stop offset="0.658079" stop-color="#13172C"/>
</linearGradient>
<linearGradient id="paint1_linear_2832_197555" x1="26.5494" y1="27.1481" x2="43.8519" y2="44.4506" gradientUnits="userSpaceOnUse">
<stop offset="0.35" stop-color="#F7052D"/>
<stop offset="0.85" stop-color="#CA5AFA"/>
</linearGradient>
</defs>
</svg>
